<svg xmlns="http://www.w3.org/2000/svg" viewBox="0 0 512 512">
  <rect width="512" height="512" rx="112" fill="#4f46e5"/>
  <path d="M256 100c-86 0-156 70-156 156s70 156 156 156 156-70 156-156-70-156-156-156zm0 280c-68.4 0-124-55.6-124-124s55.6-124 124-124 124 55.6 124 124-55.6 124-124 124z" fill="white"/>
  <path d="M256 170c-47.4 0-86 38.6-86 86s38.6 86 86 86 86-38.6 86-86-38.6-86-86-86zm30 100h-16v16c0 7.7-6.3 14-14 14s-14-6.3-14-14v-16h-16c-7.7 0-14-6.3-14-14s6.3-14 14-14h16v-16c0-7.7 6.3-14 14-14s14 6.3 14 14v16h16c7.7 0 14 6.3 14 14s-6.3 14-14 14z" fill="white"/>
</svg>
